<?xml version="1.0" encoding="utf-8"?>
<!-- Generator: Adobe Illustrator 21.0.0, SVG Export Plug-In . SVG Version: 6.00 Build 0)  -->
<svg version="1.1" id="Layer_1" xmlns="http://www.w3.org/2000/svg" xmlns:xlink="http://www.w3.org/1999/xlink" x="0px" y="0px"
	 viewBox="0 0 130.7 139" style="enable-background:new 0 0 130.7 139;" xml:space="preserve">
<style type="text/css">
	.st0{fill:#10A9F3;}
	.st1{fill:#673AB7;}
	.st2{fill:#FFFFFF;}
</style>
<path class="st0" d="M0,23L64.5,0l66.2,22.6L120,107.9l-55.5,30.7L9.9,108.3L0,23L0,23z"/>
<path class="st1" d="M130.7,22.6L64.5,0v138.6l55.5-30.7L130.7,22.6L130.7,22.6z"/>
<g>
	<path class="st2" d="M31.1,96.6l8-11.1c5.5,6,14.4,11.3,25.7,11.3c11.7,0,16.2-5.7,16.2-11.2c0-17-47.2-6.5-47.2-36.3
		c0-13.5,11.7-23.9,29.6-23.9c12.5,0,22.9,4.1,30.3,11.4l-8,10.6c-6.5-6.5-15.1-9.4-23.6-9.4c-8.3,0-13.6,4.1-13.6,10.1
		c0,15.2,47.2,5.8,47.2,36c0,13.5-9.6,25.2-31.4,25.2C49.2,109.5,38.4,104.1,31.1,96.6z"/>
</g>
</svg>
